<?xml version="1.0" encoding="utf-8"?>
<!-- Generator: Adobe Illustrator 21.0.2, SVG Export Plug-In . SVG Version: 6.00 Build 0)  -->
<svg version="1.1" id="Vrstva_1" xmlns="http://www.w3.org/2000/svg" xmlns:xlink="http://www.w3.org/1999/xlink" x="0px" y="0px"
	 viewBox="0 0 100 100" enable-background="new 0 0 100 100" xml:space="preserve">
<path
   d="m 88.127223,17.431928 c -0.254717,0.02364 -0.500683,0.144551 -0.676737,0.356658 L 53.339291,58.436693 51.918143,57.244174 74.720517,30.064958 c 0.0018,-0.0018 0.0037,-0.0054 0.0055,-0.0073 0.353981,-0.423278 0.297077,-1.052533 -0.126202,-1.406514 L 63.865292,19.64687 c -0.0018,-9.37e-4 -0.0054,-0.0037 -0.0073,-0.0055 -0.425151,-0.353045 -1.054408,-0.292527 -1.406516,0.131689 l -22.804202,27.173727 -3.947022,-3.312352 -0.0018,-0.0018 C 35.2733,43.275843 34.637753,43.330026 34.280962,43.755178 L 25.276704,54.48603 c -9.36e-4,9.35e-4 -8.92e-4,0.0027 -0.0018,0.0037 -0.355854,0.426088 -0.298058,1.058914 0.12803,1.413831 l 3.948852,3.314181 -1.011447,1.203495 -17.639055,-14.802247 -0.0018,-0.0037 C 10.274274,45.258426 9.6405552,45.312609 9.2837653,45.73776 L 0.27756106,56.468588 c -9.3649e-4,9.37e-4 -8.9254e-4,0.0027 -0.001831,0.0037 -0.35585384,0.426088 -0.29805681,1.060743 0.12803136,1.415661 l 29.13085358,24.4467 c 0.43077,0.360536 1.072434,0.304525 1.435779,-0.124373 L 41.620769,69.515058 54.53181,80.350165 c 0.430771,0.360536 1.072435,0.304524 1.43578,-0.124374 L 99.717707,28.080473 c 0.0018,-0.0018 0.0056,-0.0037 0.0075,-0.0055 0.353983,-0.423278 0.297083,-1.052533 -0.126197,-1.406514 L 88.86246,17.662377 c -0.0018,-9.36e-4 -0.0037,-0.0017 -0.0055,-0.0037 -0.212576,-0.176523 -0.475062,-0.250444 -0.729778,-0.226797 z" /></svg>
