<?xml version="1.0" encoding="utf-8"?>
<!-- Generator: Adobe Illustrator 21.0.2, SVG Export Plug-In . SVG Version: 6.00 Build 0)  -->
<svg version="1.1" id="Vrstva_1" xmlns="http://www.w3.org/2000/svg" xmlns:xlink="http://www.w3.org/1999/xlink" x="0px" y="0px"
	 viewBox="0 0 100 100" enable-background="new 0 0 100 100" xml:space="preserve">
<path id="path_8_" d="M78.153,16.252l11.464,9.616c0.452,0.378,0.512,1.05,0.134,1.502c-0.002,0.002-0.004,0.005-0.006,0.007
	L43.026,83.061c-0.388,0.458-1.073,0.517-1.533,0.132L10.386,57.088c-0.455-0.379-0.517-1.056-0.137-1.511
	c0.001-0.001,0.002-0.003,0.003-0.004l9.616-11.459c0.381-0.454,1.058-0.512,1.512-0.131c0.001,0.001,0.002,0.002,0.003,0.003
	l18.836,15.807l36.425-43.407c0.376-0.453,1.049-0.516,1.503-0.139C78.149,16.249,78.151,16.251,78.153,16.252z"/>
</svg>
