<svg id="Vrstva_1" data-name="Vrstva 1" xmlns="http://www.w3.org/2000/svg" viewBox="0 0 100 100"><title>icons</title><g id="house"><g id="Group_6795" data-name="Group 6795"><path style="fill: white;" id="Path_1050" data-name="Path 1050" d="M90,49.38a1.53,1.53,0,0,0,0-.3V49c0-.09,0-.19-.09-.28a.62.62,0,0,0,0-.11,1.16,1.16,0,0,0-.14-.27l0-.09a1.37,1.37,0,0,0-.19-.22l-.09-.1-.07-.07-8.71-7.66V17.08a2.23,2.23,0,0,0-2.22-2.22h-13a2.24,2.24,0,0,0-2.22,2.22v7.71L51.46,14.51a.1.1,0,0,0-.05,0h0a.91.91,0,0,0-.16-.11h0a2.07,2.07,0,0,0-.64-.29h-.15l-.2,0a.21.21,0,0,1-.11,0h-.49l-.22.05-.08,0-.11.05-.18.08-.08,0-.08.06-.19.13-.06,0-32,28.14-5.93,5.14a.23.23,0,0,0-.07.07l-.11.11a1.16,1.16,0,0,0-.16.21.41.41,0,0,0-.07.11,1.41,1.41,0,0,0-.13.24,1.47,1.47,0,0,0-.06.14c0,.09-.05.17-.07.25l0,.16a2.3,2.3,0,0,0,0,.26v.18a.81.81,0,0,0,0,.24c0,.06,0,.13,0,.19s0,.13.06.2l.09.2a1.28,1.28,0,0,0,.1.17,1.1,1.1,0,0,0,.14.21s0,.07.06.09l.05,0,.24.22.09.06a2.39,2.39,0,0,0,.34.21h0a2.24,2.24,0,0,0,.87.19h3.72V83.8A2.14,2.14,0,0,0,18,86H38.42a1.19,1.19,0,0,0,1.2-1.2V65.36a1.87,1.87,0,0,1,1.86-1.86h17a1.86,1.86,0,0,1,1.86,1.85h0v19.4a1.2,1.2,0,0,0,1.2,1.2H82a2.15,2.15,0,0,0,2.15-2.15h0V51.56h3.72a2.15,2.15,0,0,0,.87-.18l.05,0a3.37,3.37,0,0,0,.32-.19l.11-.09a1.45,1.45,0,0,0,.22-.21l0,0a.36.36,0,0,0,.07-.1.75.75,0,0,0,.13-.18l.11-.19.08-.17a2.17,2.17,0,0,0,.07-.24.73.73,0,0,0,0-.16,2.46,2.46,0,0,0,0-.28v-.12Z"/></g></g></svg>