<svg id="Vrstva_1" data-name="Vrstva 1" xmlns="http://www.w3.org/2000/svg" viewBox="0 0 100 100"><title>icons</title><g id="arrows"><path id="Path_1070" data-name="Path 1070" d="M89.9,71.79a4.78,4.78,0,0,1-4.77,4.76H26.57l5.23,5.23a5,5,0,0,1,.75,6.07,4.69,4.69,0,0,1-6.49,1.4,4.55,4.55,0,0,1-.8-.65l-14-14a3.9,3.9,0,0,1-.11-5.51l.11-.1L25.19,55.07a4.77,4.77,0,0,1,6.73,0,6.36,6.36,0,0,1,.56.7,5,5,0,0,1-.75,6.06l-5.26,5.24H85.13a4.59,4.59,0,0,1,4.76,4.42A2,2,0,0,1,89.9,71.79ZM88.78,25.28,74.86,11.36a4.75,4.75,0,0,0-6.72.06,4.57,4.57,0,0,0-.56.69,5,5,0,0,0,.74,6.07l5.23,5.23H14.81a4.77,4.77,0,1,0,0,9.53H73.47l-5.24,5.23a4.92,4.92,0,0,0-.75,6.09A4.69,4.69,0,0,0,74,45.66a4.55,4.55,0,0,0,.8-.65L88.68,31.1a4,4,0,0,0,.18-5.71l-.08-.09Z"/></g></svg>