<svg id="Vrstva_1" data-name="Vrstva 1" xmlns="http://www.w3.org/2000/svg" viewBox="0 0 100 100"><title>icons</title><g id="messages"><path style="fill: white;" id="Path_1068" data-name="Path 1068" d="M61.76,58.68A20.32,20.32,0,0,1,50.57,62h-4.8a2.08,2.08,0,0,0-1.73.72q-5.17,5.46-10.4,10.87a3.07,3.07,0,0,1-4.32.45,4,4,0,0,1-.36-.35,4.42,4.42,0,0,1-.86-2.47c-.1-2.88-.05-5.78,0-8.66a.89.89,0,0,0-.16-.72.9.9,0,0,0-.63-.37,21.77,21.77,0,0,1-16.67-17.8,23.55,23.55,0,0,1,6-21.85,20.08,20.08,0,0,1,14.69-6.67c3.3-.09,6.62,0,9.92,0,3,0,6,0,9.08,0a20.94,20.94,0,0,1,18.57,11,24.47,24.47,0,0,1-7.13,32.5Z"/><path style="fill: white;" id="Path_1069" data-name="Path 1069" d="M89.64,61.35A16.84,16.84,0,0,1,77.41,75a.75.75,0,0,0-.5.35.78.78,0,0,0-.1.63v5.74A2.81,2.81,0,0,1,75,84.66a2.75,2.75,0,0,1-3.2-.89c-2.4-2.55-4.84-5.1-7.31-7.6a2.64,2.64,0,0,0-1.5-.65,53.29,53.29,0,0,1-7.14-.58,16,16,0,0,1-10.4-8.43A7.37,7.37,0,0,1,47.4,66a35.83,35.83,0,0,0,9.12-.75A25.24,25.24,0,0,0,74,49.57a84.43,84.43,0,0,0,2.5-9,11.43,11.43,0,0,1,4.75,1.71,18.16,18.16,0,0,1,8.37,19.08Z"/></g></svg>